<svg id="Layer_1" data-name="Layer 1" xmlns="http://www.w3.org/2000/svg" xmlns:xlink="http://www.w3.org/1999/xlink" viewBox="0 0 104.62 80.66"><defs><style>.cls-1{fill:url(#New_Gradient_Swatch);}.cls-2{fill:url(#New_Gradient_Swatch-2);}.cls-3{fill:#ff931e;}.cls-4{fill:url(#New_Gradient_Swatch-3);}.cls-5{fill:url(#New_Gradient_Swatch-4);}.cls-6{font-size:21.54px;fill:#fff;font-family:BlackerDisplay-HeavyItalic, Blacker Display;font-weight:800;font-style:italic;}.cls-7{letter-spacing:-0.01em;}.cls-8{letter-spacing:0em;}.cls-9{letter-spacing:-0.01em;}</style><linearGradient id="New_Gradient_Swatch" x1="24.3" y1="75.53" x2="80.3" y2="75.53" gradientUnits="userSpaceOnUse"><stop offset="0" stop-color="#e7272d"/><stop offset="1" stop-color="#8d1c24"/></linearGradient><linearGradient id="New_Gradient_Swatch-2" x1="-2.12" y1="63.2" x2="97.52" y2="12.76" xlink:href="#New_Gradient_Swatch"/><linearGradient id="New_Gradient_Swatch-3" x1="0" y1="58.16" x2="24.32" y2="58.16" xlink:href="#New_Gradient_Swatch"/><linearGradient id="New_Gradient_Swatch-4" x1="-49.29" y1="58.16" x2="-73.6" y2="58.16" gradientTransform="matrix(-1, 0, 0, 1, 31.01, 0)" xlink:href="#New_Gradient_Swatch"/></defs><title>casa50</title><rect class="cls-1" x="24.3" y="70.39" width="56" height="10.27"/><polygon class="cls-2" points="25.62 68.8 3.03 35.66 25.64 2.5 78.97 2.5 101.58 35.66 78.98 68.8 25.62 68.8"/><path class="cls-3" d="M82.34,5l20.91,30.66L82.36,66.3H31.64L10.75,35.66,31.66,5H82.34M85,0H29L4.7,35.66,29,71.32l0,0H85l0,0L109.3,35.66,85,0Z" transform="translate(-4.7 0)"/><polygon class="cls-4" points="0 35.66 24.32 71.32 24.32 80.66 0.08 45.12 0 35.66"/><polygon class="cls-5" points="104.62 35.66 80.3 71.32 80.3 80.66 104.54 45.12 104.62 35.66"/><text class="cls-6" transform="translate(17.22 43.18)">G<tspan class="cls-7" x="16.43" y="0">lรณ</tspan><tspan class="cls-8" x="36.68" y="0">r</tspan><tspan class="cls-9" x="47.29" y="0">i</tspan><tspan x="54.45" y="0">a</tspan></text></svg>