<svg id="Layer_1" data-name="Layer 1" xmlns="http://www.w3.org/2000/svg" xmlns:xlink="http://www.w3.org/1999/xlink" viewBox="0 0 104.62 80.66"><defs><style>.cls-1{fill:url(#linear-gradient);}.cls-2{fill:url(#linear-gradient-2);}.cls-3{fill:#ff931e;}.cls-4{fill:url(#linear-gradient-3);}.cls-5{fill:url(#linear-gradient-4);}.cls-6,.cls-7,.cls-8{isolation:isolate;}.cls-7,.cls-8{font-size:21.54px;fill:#fff;font-family:BlackerDisplay-ExtraBoldItalic, Blacker Display;font-weight:800;font-style:italic;}.cls-8{letter-spacing:-0.01em;}</style><linearGradient id="linear-gradient" x1="24.3" y1="6.47" x2="80.3" y2="6.47" gradientTransform="matrix(1, 0, 0, -1, 0, 82)" gradientUnits="userSpaceOnUse"><stop offset="0" stop-color="#008ce3"/><stop offset="1" stop-color="#0045a6"/></linearGradient><linearGradient id="linear-gradient-2" x1="3.03" y1="35.65" x2="101.58" y2="35.65" gradientTransform="matrix(1, 0, 0, 1, 0, 0)" xlink:href="#linear-gradient"/><linearGradient id="linear-gradient-3" x1="0" y1="23.84" x2="24.32" y2="23.84" xlink:href="#linear-gradient"/><linearGradient id="linear-gradient-4" x1="-1863.29" y1="23.84" x2="-1887.61" y2="23.84" gradientTransform="translate(-1782.99 82) rotate(180)" xlink:href="#linear-gradient"/></defs><title>casa0</title><rect class="cls-1" x="24.3" y="70.39" width="56" height="10.27"/><polygon class="cls-2" points="25.62 68.8 3.03 35.66 25.64 2.5 78.97 2.5 101.58 35.66 78.98 68.8 25.62 68.8"/><path class="cls-3" d="M77.64,5,98.55,35.66,77.66,66.3H26.94L6.05,35.66,27,5H77.64M80.3,0h-56L0,35.66,24.3,71.32h56l24.3-35.66Z"/><polygon class="cls-4" points="0 35.66 24.32 71.32 24.32 80.66 0.08 45.12 0 35.66"/><polygon class="cls-5" points="104.62 35.66 80.3 71.32 80.3 80.66 104.54 45.12 104.62 35.66"/><g class="cls-6"><text class="cls-7" transform="translate(21.24 43.18)">In</text><text class="cls-8" transform="translate(44.08 43.18)">í</text><text class="cls-7" transform="translate(51.23 43.18)">c</text><text class="cls-8" transform="translate(62.9 43.18)">i</text><text class="cls-7" transform="translate(70.05 43.18)">o</text></g></svg>