<svg id="Layer_1" data-name="Layer 1" xmlns="http://www.w3.org/2000/svg" xmlns:xlink="http://www.w3.org/1999/xlink" viewBox="0 0 104.6 55"><defs><style>.cls-1{fill:url(#linear-gradient);}.cls-2{fill:url(#linear-gradient-2);}.cls-3{fill:url(#linear-gradient-3);}.cls-4{fill:url(#linear-gradient-4);}.cls-5{fill:url(#linear-gradient-5);}</style><linearGradient id="linear-gradient" x1="24.3" y1="-1020.5" x2="80.3" y2="-1020.5" gradientTransform="matrix(1, 0, 0, -1, 0, -969)" gradientUnits="userSpaceOnUse"><stop offset="0" stop-color="#008ce3"/><stop offset="1" stop-color="#0045a6"/></linearGradient><linearGradient id="linear-gradient-2" x1="101.1" y1="-993.3" x2="3.5" y2="-993.3" gradientTransform="matrix(1, 0, 0, -1, 0, -969)" gradientUnits="userSpaceOnUse"><stop offset="0" stop-color="#94c200"/><stop offset="1" stop-color="#009048"/></linearGradient><linearGradient id="linear-gradient-3" y1="31.7" x2="104.6" y2="31.7" gradientTransform="matrix(1, 0, 0, -1, 0, 56)" gradientUnits="userSpaceOnUse"><stop offset="0" stop-color="#acd95e"/><stop offset="1" stop-color="#98ffff"/></linearGradient><linearGradient id="linear-gradient-4" x1="0" y1="-1008.65" x2="24.3" y2="-1008.65" xlink:href="#linear-gradient"/><linearGradient id="linear-gradient-5" x1="-3685.29" y1="-1008.65" x2="-3709.59" y2="-1008.65" gradientTransform="translate(-3604.99 -969) rotate(180)" xlink:href="#linear-gradient"/></defs><title>casa</title><rect class="cls-1" x="24.3" y="48" width="56" height="7"/><polygon class="cls-2" points="25.3 46.1 3.5 24.3 25.4 2.5 79.3 2.5 101.1 24.3 79.3 46.1 25.3 46.1"/><path class="cls-3" d="M78.2,5,97.5,24.3,78.2,43.6H26.4L7.1,24.3,26.4,5H78.2m2.1-5h-56L0,24.3,24.3,48.6h56l24.3-24.3Z"/><polygon class="cls-4" points="0 24.3 24.3 48.6 24.3 55 0.1 30.8 0 24.3"/><polygon class="cls-5" points="104.6 24.3 80.3 48.6 80.3 55 104.5 30.8 104.6 24.3"/></svg>