<?xml version="1.0" encoding="utf-8"?>
<!-- Generator: Adobe Illustrator 25.0.0, SVG Export Plug-In . SVG Version: 6.00 Build 0)  -->
<svg version="1.1" id="Layer_1" xmlns="http://www.w3.org/2000/svg" xmlns:xlink="http://www.w3.org/1999/xlink" x="0px" y="0px"
	 viewBox="0 0 850 198.03" style="enable-background:new 0 0 850 198.03;" xml:space="preserve">
<style type="text/css">
	.st0{fill:url(#SVGID_1_);}
	.st1{fill:url(#SVGID_2_);}
	.st2{fill:#FBB03B;}
	.st3{fill:#1099DD;}
	.st4{fill:#5CD1FF;}
	.st5{fill:#006DA3;}
	.st6{fill:url(#SVGID_3_);}
	.st7{fill:url(#SVGID_4_);}
	.st8{fill:url(#SVGID_5_);}
</style>
<linearGradient id="SVGID_1_" gradientUnits="userSpaceOnUse" x1="3.52" y1="1189" x2="846.48" y2="1189" gradientTransform="matrix(1 0 0 1 0 -1095.4)">
	<stop  offset="0" style="stop-color:#20B2AA"/>
	<stop  offset="1" style="stop-color:#007786"/>
</linearGradient>
<polygon class="st0" points="754.3,5 95.7,5 7.1,93.6 95.7,182.2 754.3,182.2 842.9,93.6 "/>
<linearGradient id="SVGID_2_" gradientUnits="userSpaceOnUse" x1="850" y1="93.6" x2="-9.094947e-13" y2="93.6">
	<stop  offset="0" style="stop-color:#FBB03B"/>
	<stop  offset="1" style="stop-color:#F7931E"/>
</linearGradient>
<path class="st1" d="M756.4,0H93.6L0,93.6l93.6,93.6h662.8L850,93.6L756.4,0z M95.7,182.2L7.1,93.6L95.7,5h658.6l88.6,88.6
	l-88.6,88.6H95.7z"/>
<rect x="63.76" y="80.69" transform="matrix(0.7071 -0.7071 0.7071 0.7071 -43.9529 82.171)" class="st2" width="26.9" height="26.9"/>
<rect x="68.66" y="85.59" transform="matrix(0.7071 -0.7071 0.7071 0.7071 -43.9529 82.171)" class="st3" width="17.1" height="17.1"/>
<polygon class="st4" points="77.2,82.2 77.2,94.3 89.3,94.3 "/>
<polygon class="st5" points="77.2,106.4 77.2,94.3 65.1,94.3 "/>
<rect x="84.06" y="44.61" transform="matrix(0.7071 -0.7071 0.7071 0.7071 -11.7045 84.0579)" class="st2" width="23.1" height="23.1"/>
<rect x="89.57" y="49.97" transform="matrix(0.7071 -0.7071 0.7071 0.7071 -11.6264 84.0685)" class="st3" width="12.2" height="12.2"/>
<polygon class="st4" points="95.7,47.5 95.7,56.2 104.3,56.2 "/>
<polygon class="st5" points="95.7,64.8 95.7,56.2 87,56.2 "/>
<rect x="84.08" y="120.74" transform="matrix(0.7071 -0.7071 0.7071 0.7071 -65.5345 106.365)" class="st2" width="23.1" height="23.1"/>
<rect x="89.57" y="126.1" transform="matrix(0.7071 -0.7071 0.7071 0.7071 -65.4593 106.3685)" class="st3" width="12.2" height="12.2"/>
<polygon class="st4" points="95.7,123.7 95.7,132.3 104.3,132.3 "/>
<polygon class="st5" points="95.7,140.9 95.7,132.3 87,132.3 "/>
<rect x="760.09" y="80.1" transform="matrix(0.7071 -0.7071 0.7071 0.7071 160.4161 574.3735)" class="st2" width="26.9" height="26.9"/>
<rect x="764.99" y="85" transform="matrix(0.7071 -0.7071 0.7071 0.7071 160.4161 574.3735)" class="st3" width="17.1" height="17.1"/>
<polygon class="st4" points="761.4,93.6 773.5,93.6 773.5,81.5 "/>
<polygon class="st5" points="785.6,93.6 773.5,93.6 773.5,105.7 "/>
<rect x="743.51" y="44.03" transform="matrix(0.7071 -0.7071 0.7071 0.7071 181.8486 550.1873)" class="st2" width="23.1" height="23.1"/>
<rect x="749.01" y="49.39" transform="matrix(0.7071 -0.7071 0.7071 0.7071 181.9267 550.1978)" class="st3" width="12.2" height="12.2"/>
<polygon class="st4" points="746.4,55.5 755,55.5 755,46.9 "/>
<polygon class="st5" points="763.7,55.5 755,55.5 755,64.1 "/>
<rect x="743.5" y="120.13" transform="matrix(0.7071 -0.7071 0.7071 0.7071 128.0374 572.4714)" class="st2" width="23.1" height="23.1"/>
<rect x="749" y="125.47" transform="matrix(0.7071 -0.7071 0.7071 0.7071 128.1255 572.4719)" class="st3" width="12.2" height="12.2"/>
<polygon class="st4" points="746.4,131.6 755,131.6 755,123 "/>
<polygon class="st5" points="763.7,131.6 755,131.6 755,140.2 "/>
<linearGradient id="SVGID_3_" gradientUnits="userSpaceOnUse" x1="90.7609" y1="192.6165" x2="759.2676" y2="192.6165">
	<stop  offset="0" style="stop-color:#FBB03B"/>
	<stop  offset="1" style="stop-color:#F7931E"/>
</linearGradient>
<rect x="93.6" y="187.2" class="st6" width="662.83" height="10.83"/>
<linearGradient id="SVGID_4_" gradientUnits="userSpaceOnUse" x1="-0.4009" y1="145.8165" x2="94.0009" y2="145.8165">
	<stop  offset="0" style="stop-color:#FBB03B"/>
	<stop  offset="1" style="stop-color:#F7931E"/>
</linearGradient>
<polygon class="st7" points="0,93.6 0,104.43 93.6,198.03 93.6,187.2 "/>
<linearGradient id="SVGID_5_" gradientUnits="userSpaceOnUse" x1="756.0278" y1="145.8165" x2="850.4008" y2="145.8165">
	<stop  offset="0" style="stop-color:#FBB03B"/>
	<stop  offset="1" style="stop-color:#F7931E"/>
</linearGradient>
<polygon class="st8" points="756.43,187.2 756.43,198.03 850,104.43 850,93.6 "/>
</svg>
