<svg id="Layer_1" data-name="Layer 1" xmlns="http://www.w3.org/2000/svg" xmlns:xlink="http://www.w3.org/1999/xlink" viewBox="0 0 152.17 80"><defs><style>.cls-1{fill:url(#linear-gradient);}.cls-2{fill:url(#linear-gradient-2);}.cls-3{fill:#ff931e;}.cls-4{fill:url(#linear-gradient-3);}.cls-5{fill:url(#linear-gradient-4);}</style><linearGradient id="linear-gradient" x1="49.57" y1="6.09" x2="131.02" y2="6.09" gradientTransform="matrix(1, 0, 0, -1, -14.22, 81)" gradientUnits="userSpaceOnUse"><stop offset="0" stop-color="#e7272d"/><stop offset="1" stop-color="#8d1c24"/></linearGradient><linearGradient id="linear-gradient-2" x1="161.23" y1="45.64" x2="19.37" y2="45.64" gradientTransform="matrix(1, 0, 0, -1, -14.22, 81)" gradientUnits="userSpaceOnUse"><stop offset="0" stop-color="#8cc63f"/><stop offset="1" stop-color="#009245"/></linearGradient><linearGradient id="linear-gradient-3" x1="14.22" y1="23.31" x2="49.6" y2="23.31" xlink:href="#linear-gradient"/><linearGradient id="linear-gradient-4" x1="-32.01" y1="23.31" x2="-67.39" y2="23.31" gradientTransform="translate(84.79 81) rotate(180)" xlink:href="#linear-gradient"/></defs><title>startbutton</title><rect class="cls-1" x="35.35" y="69.82" width="81.45" height="10.18"/><polygon class="cls-2" points="36.86 67.08 5.15 35.38 36.87 3.64 115.27 3.64 147.01 35.38 115.3 67.08 36.86 67.08"/><path class="cls-3" d="M128,7.27l28.08,28.1L128,63.45H52.58L24.51,35.37,52.59,7.27H128M131,0H49.57L14.22,35.37,49.57,70.73H131l35.35-35.36Z" transform="translate(-14.22 0)"/><polygon class="cls-4" points="0 35.38 35.38 70.73 35.38 80 0.12 44.76 0 35.38"/><polygon class="cls-5" points="152.18 35.38 116.8 70.73 116.8 80 152.06 44.76 152.18 35.38"/></svg>